Coordinates
version=1
nRows=16
nColumns=40
inDegrees=yes

Units are S.I. units (second, meters, Newtons, ...)
Angles are in degrees.

endheader
time	pelvis_tilt	pelvis_list	pelvis_rotation	pelvis_tx	pelvis_ty	pelvis_tz	hip_flexion_r	hip_adduction_r	hip_rotation_r	knee_angle_r	knee_angle_r_beta	ankle_angle_r	subtalar_angle_r	mtp_angle_r	hip_flexion_l	hip_adduction_l	hip_rotation_l	knee_angle_l	knee_angle_l_beta	ankle_angle_l	subtalar_angle_l	mtp_angle_l	lumbar_extension	lumbar_bending	lumbar_rotation	arm_flex_r	arm_add_r	arm_rot_r	elbow_flex_r	pro_sup_r	wrist_flex_r	wrist_dev_r	arm_flex_l	arm_add_l	arm_rot_l	elbow_flex_l	pro_sup_l	wrist_flex_l	wrist_dev_l
     10.08342857	     -3.05316787	     -5.16619472	     -3.34190138	      1.00500453	      0.93662884	      0.45124241	     29.33007611	     -4.28728298	     -4.59348459	     53.62171901	     53.62171901	      1.38711204	    -14.97805195	      1.00786690	      8.93398436	     -4.40983610	     -6.70386764	     18.87198228	     18.87198228	     14.83808371	    -11.10184552	      1.80064070	    -11.36982768	      4.71996455	      0.69570963	     -4.23908255	    -13.46514442	     -1.68966393	     25.91031823	     46.50696189	      0.00000000	      0.00000000	     16.77210137	    -15.98919168	     -5.81998310	     60.74243722	     46.81928403	      0.00000000	      0.00000000
     10.09685714	     -3.19414101	     -5.32153018	     -3.67101560	      1.00409200	      0.93658078	      0.45191209	     29.20920166	     -3.80731090	     -5.01341461	     50.27256529	     50.27256529	      1.85096980	    -14.14838396	      0.55288461	      8.45554615	     -4.67644776	     -7.35992352	     18.41200949	     18.41200949	     14.88306615	    -10.44119065	      0.95289691	    -11.50020971	      4.82232351	      0.80973149	     -5.80730209	    -13.36145863	     -2.28935680	     27.11275609	     46.47502324	      0.00000000	      0.00000000	     16.89939130	    -15.72907318	     -7.27659921	     62.89870088	     46.98151034	      0.00000000	      0.00000000
     10.11028571	     -3.56994869	     -5.41684211	     -3.96631411	      1.00296153	      0.93612134	      0.45265912	     29.26420029	     -3.31784160	     -5.36977163	     46.69758375	     46.69758375	      2.34589098	    -13.14257231	      0.69209658	      8.36973714	     -4.82047333	     -7.53415437	     18.16059469	     18.16059469	     15.02610113	    -10.47593542	      0.84961134	    -11.26240273	      4.89928872	      0.60199012	     -6.61830042	    -13.10786237	     -2.30955597	     26.97985256	     46.47287540	      0.00000000	      0.00000000	     17.33081393	    -16.04994403	     -7.52867035	     63.28911073	     47.01221786	      0.00000000	      0.00000000
     10.12371429	     -3.69035330	     -5.62831637	     -4.21682245	      1.00212196	      0.93600016	      0.45340900	     28.77371555	     -2.78932729	     -5.99352670	     42.71878776	     42.71878776	      2.83545782	    -11.44624402	      0.53625746	      7.91437442	     -5.08457763	     -7.81487868	     17.78585167	     17.78585167	     15.20152488	    -10.24652979	      0.56679570	    -11.36295125	      5.11770131	      0.66589317	     -7.48901200	    -13.03945404	     -2.42948603	     27.00662442	     46.46963759	      0.00000000	      0.00000000	     17.70734062	    -15.92932263	     -7.94773357	     64.10660460	     47.06349095	      0.00000000	      0.00000000
     10.13714286	     -3.91891391	     -5.70294799	     -4.52982191	      1.00135279	      0.93550914	      0.45435107	     28.26598545	     -2.31795468	     -6.52539530	     38.45336669	     38.45336669	      2.56914522	     -9.82745097	     -1.53092490	      7.58033255	     -5.26804757	     -8.40672670	     17.41670975	     17.41670975	     15.09319867	     -9.79561027	     -0.60556100	    -11.37912875	      5.17070215	      0.58286313	     -8.55276733	    -12.80797753	     -3.20323203	     28.28055748	     46.44332893	      0.00000000	      0.00000000	     17.65552013	    -15.68445324	     -9.60914424	     65.76815228	     47.23943335	      0.00000000	      0.00000000
     10.15057143	     -4.20701550	     -5.77879784	     -4.80548991	      1.00062586	      0.93492278	      0.45534448	     27.76570230	     -1.76663124	     -6.99335016	     34.19813256	     34.19813256	      2.84694916	     -7.90553208	     -1.27631931	      7.35606520	     -5.39398075	     -8.60577393	     17.14046285	     17.14046285	     15.27494742	     -9.77935320	     -0.73337272	    -11.22944168	      5.26532824	      0.62307794	     -9.10361741	    -12.60586333	     -3.20443976	     28.10987660	     46.44296807	      0.00000000	      0.00000000	     17.98874685	    -15.72478582	     -9.71848796	     66.14175348	     47.25911381	      0.00000000	      0.00000000
     10.16400000	     -4.33395070	     -5.75790147	     -5.10409553	      1.00013282	      0.93441483	      0.45639818	     27.00433917	     -1.37437390	     -7.67843357	     29.96027421	     29.96027421	      3.04912140	     -5.26121030	     -1.21560873	      6.92078158	     -5.43239470	     -9.02494561	     16.83242334	     16.83242334	     15.46483203	     -9.47810850	     -1.05149583	    -11.28583111	      5.21377804	      0.76758630	     -9.59040196	    -12.35400416	     -3.28703863	     28.11049760	     46.43928181	      0.00000000	      0.00000000	     18.33130616	    -15.66046503	    -10.01652840	     66.71728294	     47.29882569	      0.00000000	      0.00000000
     10.17742857	     -4.62179036	     -5.77062421	     -5.32789660	      0.99972968	      0.93359645	      0.45753990	     26.34095822	     -0.82058706	     -8.21747334	     25.78389888	     25.78389888	      3.00405356	     -3.24219037	     -0.63777039	      6.73161777	     -5.51189980	     -9.25141337	     16.64561237	     16.64561237	     15.66523740	     -9.40251159	     -1.26933061	    -11.09899025	      5.26942368	      0.79716829	     -9.95138210	    -12.16293055	     -3.33452673	     28.12604136	     46.43590344	      0.00000000	      0.00000000	     18.46142092	    -15.63648669	    -10.17561311	     67.04899311	     47.31995855	      0.00000000	      0.00000000
     10.19085714	     -4.67355939	     -5.69643586	     -5.55977081	      0.99964958	      0.93293999	      0.45874047	     25.44160461	     -0.43532994	     -9.04128350	     21.96552204	     21.96552204	      2.97281451	     -0.57012741	      0.03814561	      6.24785033	     -5.50061113	     -9.66990282	     16.43567689	     16.43567689	     15.90903600	     -9.05700461	     -1.65181777	    -11.16740760	      5.17612307	      0.86470837	    -10.20948065	    -11.95592943	     -3.46050046	     28.31651409	     46.42910230	      0.00000000	      0.00000000	     18.61756662	    -15.56516402	    -10.50064526	     67.49862121	     47.35821087	      0.00000000	      0.00000000
     10.20428571	     -4.94204188	     -5.61521746	     -5.74748375	      0.99959969	      0.93187984	      0.46005666	     24.85792995	      0.05596756	     -9.56797088	     18.59671366	     18.59671366	      2.68116449	      1.17662069	      0.92215160	      6.05980798	     -5.48948389	     -9.86566810	     16.31137793	     16.31137793	     16.14285259	     -8.97954824	     -1.86496424	    -10.93401019	      5.13128113	      0.88315135	    -10.35927091	    -11.72940144	     -3.49761843	     28.42292571	     46.42303195	      0.00000000	      0.00000000	     18.63710766	    -15.51162180	    -10.60263432	     67.69592191	     47.37188431	      0.00000000	      0.00000000
     10.21771429	     -5.02700283	     -5.56189214	     -5.88723795	      0.99984003	      0.93100683	      0.46136892	     24.12964690	      0.50512405	    -10.25662373	     15.76860152	     15.76860152	      2.39089950	      2.99212298	      1.83233162	      5.65574241	     -5.49652146	    -10.07557554	     16.19540252	     16.19540252	     16.42665334	     -8.79606327	     -2.09913763	    -10.89240528	      5.13725622	      0.89301672	    -10.39219722	    -11.57022029	     -3.54667856	     28.58610740	     46.41639534	      0.00000000	      0.00000000	     18.64308803	    -15.45338234	    -10.69987596	     67.83963046	     47.38437407	      0.00000000	      0.00000000
     10.23114286	     -5.07575189	     -5.49799467	     -5.99754954	      1.00030816	      0.93014823	      0.46283739	     23.49673675	      0.90850980	    -10.98871276	     13.62569291	     13.62569291	      2.11831907	      4.53908630	      2.69193513	      5.19843156	     -5.50140861	    -10.32252007	     16.07877155	     16.07877155	     16.76170270	     -8.53801958	     -2.33058438	    -10.84307545	      5.09336675	      0.89047319	    -10.32406302	    -11.45912439	     -3.60533996	     28.82252819	     46.40783307	      0.00000000	      0.00000000	     18.56801527	    -15.38730383	    -10.77794731	     67.88043336	     47.39219395	      0.00000000	      0.00000000
     10.24457143	     -5.13265980	     -5.43231020	     -6.08940223	      1.00092991	      0.92925822	      0.46436215	     23.02996493	      1.26793985	    -11.61758256	     12.19448573	     12.19448573	      1.82404192	      5.62946874	      3.34809088	      4.75477827	     -5.51008244	    -10.56516849	     15.98141825	     15.98141825	     17.08620131	     -8.27664513	     -2.49632168	    -10.74624470	      5.07949523	      0.86440125	    -10.14390663	    -11.35906842	     -3.66019499	     29.08782809	     46.39890413	      0.00000000	      0.00000000	     18.41782887	    -15.31092824	    -10.81405829	     67.79155592	     47.39553202	      0.00000000	      0.00000000
     10.25800000	     -5.14411615	     -5.44881968	     -6.15010445	      1.00177531	      0.92845109	      0.46603590	     22.59633138	      1.65606764	    -12.20965871	     11.34637537	     11.34637537	      1.57271100	      6.37220014	      3.70964581	      4.23500265	     -5.61997962	    -10.79994145	     15.87992940	     15.87992940	     17.46033224	     -7.92039840	     -2.60228622	    -10.68517936	      5.15733287	      0.80490212	     -9.85158176	    -11.30237569	     -3.72952099	     29.42943289	     46.38806712	      0.00000000	      0.00000000	     18.18666405	    -15.22625646	    -10.82345778	     67.54350119	     47.39433998	      0.00000000	      0.00000000
     10.27142857	     -5.24569833	     -5.33941163	     -6.17628272	      1.00266808	      0.92738800	      0.46778364	     22.54710946	      1.84792414	    -12.42634539	     11.34314413	     11.34314413	      1.47725679	      6.30109516	      3.73923770	      3.89758291	     -5.58519798	    -10.81738743	     15.89528978	     15.89528978	     17.76739108	     -7.97622439	     -2.70135312	    -10.45011562	      5.07612372	      0.90669488	     -9.65938241	    -11.27108644	     -3.72961206	     29.51777053	     46.38574654	      0.00000000	      0.00000000	     18.07939917	    -15.15363724	    -10.79904297	     67.49472291	     47.39116249	      0.00000000	      0.00000000
     10.28485714	     -5.15277268	     -5.47386538	     -6.18147719	      1.00402061	      0.92686697	      0.46963877	     21.99285951	      2.25764366	    -12.74302047	     11.14354081	     11.14354081	      1.14702331	      6.48124518	      3.14220395	      3.15723754	     -5.84312351	    -11.20527326	     15.68516604	     15.68516604	     18.25685891	     -7.18283273	     -2.60667008	    -10.45118029	      5.35264618	      0.56971145	     -8.95106653	    -11.23844050	     -3.86136350	     30.16518966	     46.36857382	      0.00000000	      0.00000000	     17.50414259	    -15.10745209	    -10.72905065	     66.57057874	     47.37152064	      0.00000000	      0.00000000
